<?xml version="1.0" encoding="UTF-8" standalone="no"?>
<svg
   xmlns:dc="http://purl.org/dc/elements/1.1/"
   xmlns:cc="http://creativecommons.org/ns#"
   xmlns:rdf="http://www.w3.org/1999/02/22-rdf-syntax-ns#"
   xmlns:svg="http://www.w3.org/2000/svg"
   xmlns="http://www.w3.org/2000/svg"
   xmlns:sodipodi="http://sodipodi.sourceforge.net/DTD/sodipodi-0.dtd"
   xmlns:inkscape="http://www.inkscape.org/namespaces/inkscape"
   width="400"
   height="200"
   version="1.1"
   viewBox="0 0 105.83 52.917"
   id="svg873"
   sodipodi:docname="logo.svg"
   inkscape:version="1.0.1 (3bc2e813f5, 2020-09-07)">
  <defs
     id="defs877">
    <marker
       style="overflow:visible"
       id="Arrow1Lstart"
       refX="0.0"
       refY="0.0"
       orient="auto"
       inkscape:stockid="Arrow1Lstart"
       inkscape:isstock="true">
      <path
         transform="scale(0.8) translate(12.5,0)"
         style="fill-rule:evenodd;stroke:#000000;stroke-width:1.0pt"
         d="M 0.0,0.0 L 5.0,-5.0 L -12.5,0.0 L 5.0,5.0 L 0.0,0.0 z "
         id="path881" />
    </marker>
  </defs>
  <sodipodi:namedview
     pagecolor="#ffffff"
     bordercolor="#666666"
     borderopacity="1"
     objecttolerance="10"
     gridtolerance="10"
     guidetolerance="10"
     inkscape:pageopacity="0"
     inkscape:pageshadow="2"
     inkscape:window-width="640"
     inkscape:window-height="480"
     id="namedview875"
     showgrid="false"
     inkscape:zoom="2.4625"
     inkscape:cx="178.29446"
     inkscape:cy="95.136644"
     inkscape:current-layer="svg873" />
  <title
     id="title851">Ayd?</title>
  <metadata
     id="metadata853">
    <rdf:RDF>
      <cc:Work
         rdf:about="">
        <dc:format>image/svg+xml</dc:format>
        <dc:type
           rdf:resource="http://purl.org/dc/dcmitype/StillImage" />
        <dc:title>Ayd?</dc:title>
      </cc:Work>
    </rdf:RDF>
  </metadata>
  <rect
     style="fill:#ffffff;stroke-width:9.13533;stroke-linecap:square;stroke-miterlimit:4;stroke-dasharray:none;fill-opacity:1"
     id="rect1151"
     width="105.834"
     height="52.917"
     x="-0.0020000001"
     y="0"
     rx="10.5834" />
  <g
     transform="matrix(0.62985,0,0,0.62985,-224.53056,90.355186)"
     id="g871">
    <path
       d="m 418.02,-80.921 c -2.4803,-0.08 -4.4025,0.10537 -6.7182,0 -5.2121,-12.275 -1.9323,-14.893 -15.63,-14.773 -13.698,0.11996 -10.659,3.1504 -15.527,14.773 -3.3389,-0.0945 -4.8337,0.0429 -6.684,0 7.6995,-18.241 13.297,-33.717 19.88,-50.49 1.1811,-0.0438 2.9777,-0.0309 4.9702,0 6.394,16.163 11.443,31.375 19.709,50.49 z m -19.092,-33.077 c -4.7182,-12.361 -1.7199,-13.087 -6.5809,0 -6.1892,16.663 -5.7623,13.261 3.603,13.31 9.3653,0.0497 9.0148,2.505 2.9779,-13.31 z"
       style="white-space:pre;shape-inside:url(#rect1145)"
       id="path855" />
    <path
       d="m 448.23,-116.05 c -18.051,37.296 -12.375,44.91 -30.616,51.571 -1.1228,-3.3501 -0.79911,-3.9419 -1.8087,-6.5777 7.9586,-0.97693 10.722,-7.5067 10.97,-10.843 0.24807,-3.3361 -5.7294,-16.848 -14.264,-34.151 2.4043,0.0857 4.8095,0.19291 7.202,0 14.457,32.239 8.4084,30.58 21.642,0 2.4159,0.14974 4.7619,0.21487 6.8763,0 z"
       style="white-space:pre"
       id="path857" />
    <g
       transform="translate(99.226,-102.63)"
       id="g869">
      <path
         d="m 375.4,-28.315 c 4.2704,1.1408 21.168,-3.5086 27.399,3.2563 7.479,8.1199 6.9158,21.829 -0.349,27.317 -16.379,12.373 -23.711,-12.97 -21.327,19.224 -2.1858,-0.28784 -3.4995,-0.032 -5.7232,0 -0.33623,-17.419 1.4528,-32.875 0,-49.798 z m 9.9904,26.893 c 3.3149,2.9463 9.5842,3.0501 13.302,-0.30968 5.2638,-4.7575 4.7038,-14.739 0.094,-19.347 -4.755,-4.7536 -11.882,-2.7459 -15.149,1.1228 -4.0037,4.7413 -2.8849,14.412 1.7534,18.534 z"
         fill="#ff2d00"
         style="white-space:pre"
         id="path859" />
      <g
         id="g867">
        <path
           d="m 381.13,21.482 c -10.318,-0.63695 -21.168,3.5086 -27.399,-3.2563 -7.479,-8.1199 -6.9158,-21.829 0.349,-27.317 16.379,-12.373 23.711,12.97 21.327,-19.224 2.1858,0.28784 3.6198,-0.22229 5.7232,0 0.33624,17.419 -1.1652,32.855 0,49.798 z m -9.9904,-26.893 c -3.3149,-2.9463 -9.5842,-3.0501 -13.302,0.30968 -5.2638,4.7575 -4.7038,14.739 -0.094,19.347 4.755,4.7536 11.882,2.7459 15.149,-1.1228 4.0037,-4.7413 2.8849,-14.412 -1.7534,-18.534 z"
           style="white-space:pre"
           id="path861" />
        <path
           d="m 398.14,-1.4478 c 5.94,-5.1764 4.7942,-14.623 0.89056,-19.285 -3.90364,-4.662 -11.974,-3.2924 -15.77,1.2751 0.23183,-2.7795 -0.0817,-6.8858 0.0247,-9.0315 1.3369,0.0684 13.739,-2.7895 19.82,3.6332 6.081,6.4227 8.2779,21.166 -1.5201,27.793 -9.798,6.627 -13.868,-0.6747 -12.947,11.129 -1.9747,-0.25446 -3.4944,0.25665 -5.3042,-0.15668 -0.46645,-16.835 8.8667,-10.181 14.807,-15.357 z"
           fill-opacity="0.99966"
           style="white-space:pre"
           id="path863" />
        <path
           d="m 383.39,16.357 c 2.2053,0.29792 3.0544,-0.29047 5.3299,0.06023 -0.044,1.1588 0.32579,3.4145 0.31633,4.9686 -1.8329,-0.0747 -3.4978,-0.3172 -5.7232,0 0.18376,-1.8267 0.0468,-3.5104 0.0769,-5.0288 z"
           fill-rule="evenodd"
           id="path865" />
      </g>
    </g>
  </g>
</svg>
