<?xml version="1.0" encoding="UTF-8"?>
<svg width="297mm" height="210mm" version="1.1" viewBox="0 0 297 210" xmlns="http://www.w3.org/2000/svg"><g transform="matrix(.5338 0 0 .5338 -158.36 160.08)"><path d="m418.02-80.921c-2.4803-0.08-4.4025 0.10537-6.7182 0-5.2121-12.275-1.9323-14.893-15.63-14.773-13.698 0.11996-10.659 3.1504-15.527 14.773-3.3389-0.0945-4.8337 0.0429-6.684 0 7.6995-18.241 13.297-33.717 19.88-50.49 1.1811-0.0438 2.9777-0.0309 4.9702 0 6.394 16.163 11.443 31.375 19.709 50.49zm-19.092-33.077c-4.7182-12.361-1.7199-13.087-6.5809 0-6.1892 16.663-5.7623 13.261 3.603 13.31 9.3653 0.0497 9.0148 2.505 2.9779-13.31z" style="shape-inside:url(#rect1145);white-space:pre"/><path d="m448.23-116.05c-18.051 37.296-12.375 44.91-30.616 51.571-1.1228-3.3501-0.79911-3.9419-1.8087-6.5777 7.9586-0.97693 10.722-7.5067 10.97-10.843 0.24807-3.3361-5.7294-16.848-14.264-34.151 2.4043 0.0857 4.8095 0.19291 7.202 0 14.457 32.239 8.4084 30.58 21.642 0 2.4159 0.14974 4.7619 0.21487 6.8763 0z" style="white-space:pre"/><g transform="translate(99.226 -102.63)"><path d="m375.4-28.315c4.2704 1.1408 21.168-3.5086 27.399 3.2563 7.479 8.1199 6.9158 21.829-0.349 27.317-16.379 12.373-23.711-12.97-21.327 19.224-2.1858-0.28784-3.4995-0.032-5.7232 0-0.33623-17.419 1.4528-32.875 0-49.798zm9.9904 26.893c3.3149 2.9463 9.5842 3.0501 13.302-0.30968 5.2638-4.7575 4.7038-14.739 0.094-19.347-4.755-4.7536-11.882-2.7459-15.149 1.1228-4.0037 4.7413-2.8849 14.412 1.7534 18.534z" fill="#ff2d00" style="white-space:pre"/><path d="m381.13 21.482c-10.318-0.63695-21.168 3.5086-27.399-3.2563-7.479-8.1199-6.9158-21.829 0.349-27.317 16.379-12.373 23.711 12.97 21.327-19.224 2.1858 0.28784 3.6198-0.22229 5.7232 0 0.33624 17.419-1.1652 32.855 0 49.798zm-9.9904-26.893c-3.3149-2.9463-9.5842-3.0501-13.302 0.30968-5.2638 4.7575-4.7038 14.739-0.094 19.347 4.755 4.7536 11.882 2.7459 15.149-1.1228 4.0037-4.7413 2.8849-14.412-1.7534-18.534z" style="white-space:pre"/><path d="m398.14-1.4478c5.94-5.1764 4.7942-14.623 0.89056-19.285s-11.974-3.2924-15.77 1.2751c0.23183-2.7795-0.0817-6.8858 0.0247-9.0315 1.3369 0.0684 13.739-2.7895 19.82 3.6332s8.2779 21.166-1.5201 27.793-13.868-0.6747-12.947 11.129c-1.9747-0.25446-3.4944 0.25665-5.3042-0.15668-0.46645-16.835 8.8667-10.181 14.807-15.357z" fill-opacity=".99966" style="white-space:pre"/><path d="m383.39 16.357c2.2053 0.29792 3.0544-0.29047 5.3299 0.06023-0.044 1.1588 0.32579 3.4145 0.31633 4.9686-1.8329-0.0747-3.4978-0.3172-5.7232 0 0.18376-1.8267 0.0468-3.5104 0.0769-5.0288z" fill-rule="evenodd"/></g></g><g transform="matrix(.5338 0 0 .5338 -157.77 50.53)" fill="#5fff00" fill-opacity=".44717" stroke-width="4.2546px" aria-label="Ayd?"><path d="m406.16 271.21h-6.5148l-5.3847-14.326h-19.545l-5.285 14.326h-6.4816l19.279-48.961h4.8197zm-13.595-19.146-4.9194-12.93q-2.0276-5.418-3.058-9.8055h-0.19943q-1.1966 4.6535-3.1245 9.8055l-4.8197 12.93z"/><path d="m439.56 237.3-16.453 39.754q-3.1577 7.6117-10.902 7.6117h-0.7645l-1.4293-5.3182h1.0969q5.5509 0 7.4788-4.9526l2.1938-5.4512-14.027-31.644h6.6146l7.4788 19.046q1.7617 4.6202 2.5926 7.2129h0.19943q1.3296-4.1216 2.5262-7.2129l7.0799-19.046z"/><path d="m475.93 271.21h-5.3182v-5.9166q-4.7864 6.9137-12.099 6.9137-6.0828 0-10.271-4.2878-5.0523-5.0191-5.0523-13.728 0-8.5424 4.8862-13.562 4.2214-4.2878 10.437-4.2878 6.7143 0 11.634 5.6506v-21.107h5.7836zm-5.7836-13.196v-8.4427q0-3.3571-4.1549-6.4816-2.925-2.1273-6.4151-2.1273-3.9222 0-6.6478 2.7256-3.6231 3.623-3.6231 10.337 0 6.0495 2.9915 9.872 2.8918 3.623 7.2129 3.623 5.0523 0 8.6089-4.9526 2.0276-2.7588 2.0276-4.5538z"/><path d="m484.8 235.44q2.9583-13.827 16.354-13.827 6.9137 0 11.069 4.1549 3.6231 3.6231 3.6231 8.7086 0 4.6202-3.2574 8.5092-1.4293 1.6287-5.2518 4.7864l-1.3628 1.1634q-3.4901 2.9583-3.4901 8.4427v1.6287h-4.9526v-2.2602q0-6.681 4.8861-11.368l1.4958-1.4293 0.56506-0.46535q5.3182-4.8197 5.3182-9.0078 0-3.2574-2.2603-5.5842-2.4929-2.5262-6.3819-2.5262-8.5092 0-11.035 10.304zm18.647 35.765h-6.947v-7.0799h6.947z"/></g><g transform="matrix(.5338 0 0 .5338 -146.43 -67.244)" fill="none" stroke="#f00" stroke-width=".26458px"><path d="m316.29 419.39h233.59"/><path d="m330.69 384.55h233.59"/><path d="m327.17 368.61h233.59"/></g><g transform="matrix(.5338 0 0 .5338 -150.97 96.539)"><path d="m404.18 110.93c-2.4803-0.08-4.4025 0.10537-6.7182 0-5.2121-12.275-1.9323-14.893-15.63-14.773-13.698 0.11996-10.659 3.1504-15.527 14.773-3.3389-0.0945-4.8337 0.0429-6.684 0 7.6995-18.241 13.297-33.717 19.88-50.49 1.1811-0.0438 2.9777-0.0309 4.9702 0 6.394 16.163 11.443 31.375 19.709 50.49zm-19.092-33.077c-4.7182-12.361-1.7199-13.087-6.5809 0-6.1892 16.663-5.7623 13.261 3.603 13.31 9.3653 0.0497 9.0148 2.505 2.9779-13.31z" style="shape-inside:url(#rect1145);white-space:pre"/><path d="m434.39 75.803c-18.051 37.296-12.375 44.91-30.616 51.571-1.1228-3.3501-0.79911-3.9419-1.8087-6.5777 7.9586-0.97693 10.722-7.5067 10.97-10.843 0.24807-3.3361-5.7294-16.848-14.264-34.151 2.4043 0.0857 4.8095 0.19291 7.202 0 14.457 32.239 8.4084 30.58 21.642 0 2.4159 0.14974 4.7619 0.21487 6.8763 0z" style="white-space:pre"/><g transform="translate(85.386 89.227)"><path d="m375.4-28.315c4.2704 1.1408 21.168-3.5086 27.399 3.2563 7.479 8.1199 6.9158 21.829-0.349 27.317-16.379 12.373-23.711-12.97-21.327 19.224-2.1858-0.28784-3.4995-0.032-5.7232 0-0.33623-17.419 1.4528-32.875 0-49.798zm9.9904 26.893c3.3149 2.9463 9.5842 3.0501 13.302-0.30968 5.2638-4.7575 4.7038-14.739 0.094-19.347-4.755-4.7536-11.882-2.7459-15.149 1.1228-4.0037 4.7413-2.8849 14.412 1.7534 18.534z" fill="#ffee80" style="white-space:pre"/><path d="m381.13 21.482c-10.318-0.63695-21.168 3.5086-27.399-3.2563-7.479-8.1199-6.9158-21.829 0.349-27.317 16.379-12.373 23.711 12.97 21.327-19.224 2.1858 0.28784 3.6198-0.22229 5.7232 0 0.33624 17.419-1.1652 32.855 0 49.798zm-9.9904-26.893c-3.3149-2.9463-9.5842-3.0501-13.302 0.30968-5.2638 4.7575-4.7038 14.739-0.094 19.347 4.755 4.7536 11.882 2.7459 15.149-1.1228 4.0037-4.7413 2.8849-14.412-1.7534-18.534z" style="white-space:pre"/><path d="m398.14-1.4478c5.94-5.1764 4.7942-14.623 0.89056-19.285s-11.974-3.2924-15.77 1.2751c0.23183-2.7795-0.0817-6.8858 0.0247-9.0315 1.3369 0.0684 13.739-2.7895 19.82 3.6332s8.2779 21.166-1.5201 27.793-13.868-0.6747-12.947 11.129c-1.9747-0.25446-3.4944 0.25665-5.3042-0.15668-0.46645-16.835 8.8667-10.181 14.807-15.357z" fill-opacity=".99966" style="white-space:pre"/><path d="m383.39 16.357c2.2053 0.29792 3.0544-0.29047 5.3299 0.06023-0.044 1.1588 0.32579 3.4145 0.31633 4.9686-1.8329-0.0747-3.4978-0.3172-5.7232 0 0.18376-1.8267 0.0468-3.5104 0.0769-5.0288z" fill-rule="evenodd"/></g></g><rect x="17.206" y="11.274" width="133.33" height="66.663" fill="#f6f5f8"/><path d="m67.988 60.656c-1.765-0.05693-3.1329 0.07498-4.7808 0-3.709-8.7348-1.3751-10.598-11.123-10.513-9.7476 0.08537-7.5849 2.2418-11.049 10.513-2.376-0.06725-3.4398 0.03053-4.7565 0 5.4791-12.981 9.4623-23.993 14.147-35.929 0.84048-0.03117 2.119-0.02199 3.5369 0 4.5501 11.502 8.1428 22.327 14.025 35.929zm-13.586-23.538c-3.3575-8.7961-1.2239-9.3132-4.6831 0-4.4043 11.858-4.1005 9.4365 2.5639 9.4719 6.6645 0.03537 6.415 1.7826 2.1191-9.4719z" fill-opacity=".99993" style="shape-inside:url(#rect1145);white-space:pre"/><path d="m89.486 35.656c-12.845 26.541-8.8065 31.958-21.787 36.699-0.799-2.384-0.56866-2.8051-1.2871-4.6808 5.6635-0.6952 7.6296-5.3419 7.8061-7.7159 0.17653-2.374-4.0771-11.989-10.151-24.302 1.7109 0.06099 3.4225 0.13728 5.125 0 10.288 22.942 5.9835 21.761 15.4 0 1.7192 0.10656 3.3887 0.1529 4.8933 0z" fill-opacity=".99993" style="white-space:pre"/><path d="m108.27 25.059c3.0389 0.81178 15.063-2.4968 19.497 2.3172 5.3221 5.7782 4.9214 15.534-0.24836 19.439-11.656 8.8051-16.873-9.2295-15.176 13.68-1.5555-0.20483-2.4903-0.02277-4.0727 0-0.23927-12.396 1.0339-23.394 0-35.437zm7.1094 19.137c2.359 2.0967 6.8203 2.1705 9.4656-0.22037 3.7458-3.3855 3.3473-10.488 0.0669-13.768-3.3837-3.3827-8.4555-1.954-10.78 0.79899-2.8491 3.374-2.0529 10.255 1.2478 13.189z" fill="#ff2d00" style="white-space:pre"/><g fill-opacity=".99993"><path d="m112.34 60.496c-7.3424-0.45326-15.063 2.4968-19.497-2.3172-5.3221-5.7782-4.9214-15.534 0.24835-19.439 11.656-8.8051 16.873 9.2295 15.176-13.68 1.5555 0.20483 2.5759-0.15818 4.0727 0 0.23927 12.396-0.82915 23.38 0 35.437zm-7.1093-19.137c-2.359-2.0967-6.8203-2.1705-9.4656 0.22037-3.7458 3.3855-3.3473 10.488-0.06689 13.768 3.3837 3.3827 8.4555 1.954 10.78-0.79899 2.8491-3.374 2.0529-10.255-1.2478-13.189z" style="white-space:pre"/><path d="m124.45 44.179c4.227-3.6836 3.4116-10.406 0.63373-13.723-2.7779-3.3171-8.5209-2.3429-11.222 0.90737 0.16497-1.978-0.0581-4.9 0.0176-6.4269 0.95135 0.04867 9.777-1.985 14.104 2.5854 4.3273 4.5705 5.8907 15.062-1.0818 19.778-6.9724 4.7157-9.8687-0.48013-9.2136 7.9192-1.4052-0.18108-2.4866 0.18264-3.7746-0.1115-0.33193-11.98 6.3097-7.245 10.537-10.929z" style="white-space:pre"/><path d="m113.96 56.849c1.5693 0.212 2.1736-0.2067 3.7928 0.04286-0.0313 0.82462 0.23184 2.4298 0.2251 3.5357-1.3043-0.05316-2.4891-0.22572-4.0727 0 0.13076-1.2999 0.0333-2.498 0.0547-3.5786z" fill-rule="evenodd"/></g><g transform="translate(.35127)"><circle cx="192.49" cy="104.94" r="23.023" fill="#efeff4"/><path d="m190.8 90.652c2.4533 0.65536 12.161-2.0157 15.74 1.8707 4.2966 4.6649 3.9731 12.541-0.2005 15.694-9.41 7.1085-13.622-7.4511-12.252 11.044-1.2558-0.16536-2.0105-0.0184-3.288 0-0.19316-10.007 0.83466-18.887 0-28.609zm5.7395 15.45c1.9044 1.6927 5.5061 1.7523 7.6417-0.17791 3.024-2.7332 2.7023-8.4674 0.054-11.115-2.7317-2.7309-6.8262-1.5775-8.703 0.64504-2.3001 2.7239-1.6574 8.2794 1.0073 10.648z" fill="#ffee80" style="white-space:pre"/><path d="m194.09 119.26c-5.9276-0.36592-12.161 2.0157-15.74-1.8707-4.2966-4.6649-3.9731-12.541 0.2005-15.694 9.41-7.1085 13.622 7.4511 12.252-11.044 1.2558 0.16536 2.0795-0.1277 3.2879 0 0.19317 10.007-0.66938 18.875 0 28.609zm-5.7395-15.45c-1.9044-1.6927-5.5061-1.7523-7.6417 0.17791-3.024 2.7332-2.7023 8.4674-0.054 11.115 2.7317 2.7309 6.8262 1.5775 8.703-0.64504 2.3001-2.7239 1.6574-8.2794-1.0074-10.648z" style="white-space:pre"/><path d="m203.86 106.09c3.4125-2.9738 2.7543-8.401 0.51163-11.079-2.2426-2.6779-6.8791-1.8915-9.06 0.73254 0.13319-1.5968-0.0469-3.9559 0.0142-5.1886 0.76804 0.0393 7.8931-1.6025 11.387 2.0873 3.4935 3.6898 4.7556 12.16-0.87331 15.967-5.6289 3.8071-7.9672-0.38761-7.4383 6.3933-1.1345-0.14618-2.0075 0.14745-3.0473-0.09-0.26797-9.6719 5.0939-5.849 8.5064-8.8228z" fill-opacity=".99966" style="white-space:pre"/><path d="m195.39 116.32c1.2669 0.17115 1.7548-0.16688 3.062 0.0346-0.0253 0.66573 0.18716 1.9616 0.18173 2.8544-1.053-0.0429-2.0095-0.18223-3.2879 0 0.10557-1.0494 0.0269-2.0167 0.0442-2.889z" fill-rule="evenodd"/></g><g transform="translate(6.9313 -8.9373)"><circle cx="243.24" cy="113.94" r="23.023" fill="#08004b"/><g transform="matrix(.5745 0 0 .5745 -33.791 115)"><path d="m479.28-26.714c4.2704 1.1408 21.168-3.5086 27.399 3.2563 7.479 8.1199 6.9158 21.829-0.349 27.317-16.379 12.373-23.711-12.97-21.327 19.224-2.1858-0.28784-3.4995-0.032-5.7232 0-0.33623-17.419 1.4528-32.875 0-49.798zm9.9904 26.893c3.3149 2.9463 9.5842 3.0501 13.302-0.30968 5.2638-4.7575 4.7038-14.739 0.094-19.347-4.755-4.7536-11.882-2.7459-15.149 1.1228-4.0037 4.7413-2.8849 14.412 1.7534 18.534z" fill="#a07a00" style="white-space:pre"/><g fill="#ffee80"><path d="m485.01 23.083c-10.318-0.63695-21.168 3.5086-27.399-3.2563-7.479-8.1199-6.9158-21.829 0.349-27.317 16.379-12.373 23.711 12.97 21.327-19.224 2.1858 0.28784 3.6198-0.22229 5.7232 0 0.33624 17.419-1.1652 32.855 0 49.798zm-9.9904-26.893c-3.3149-2.9463-9.5842-3.0501-13.302 0.30968-5.2638 4.7575-4.7038 14.739-0.094 19.347 4.755 4.7536 11.882 2.7459 15.149-1.1228 4.0037-4.7413 2.8849-14.412-1.7534-18.534z" style="white-space:pre"/><path d="m502.02 0.15315c5.94-5.1763 4.7942-14.623 0.89056-19.285-3.9036-4.6613-11.974-3.2924-15.77 1.2751 0.23183-2.7795-0.0817-6.8858 0.0247-9.0315 1.3369 0.0684 13.739-2.7895 19.82 3.6332s8.2779 21.166-1.5201 27.793c-9.798 6.6268-13.868-0.6747-12.947 11.129-1.9747-0.25446-3.4944 0.25665-5.3042-0.15668-0.46645-16.835 8.8667-10.181 14.807-15.357z" style="white-space:pre"/><path d="m487.27 17.958c2.2053 0.29792 3.0544-0.29047 5.3299 0.06023-0.044 1.1588 0.32579 3.4145 0.31633 4.9686-1.8329-0.0747-3.4978-0.3172-5.7232 0 0.18376-1.8267 0.0468-3.5103 0.0769-5.0288z" fill-rule="evenodd"/></g></g></g><circle cx="250.17" cy="40.429" r="23.023" fill="#00003c"/><path d="m248.49 26.144c2.4533 0.65536 12.161-2.0157 15.74 1.8707 4.2966 4.6649 3.9731 12.541-0.2005 15.694-9.41 7.1085-13.622-7.4511-12.252 11.044-1.2558-0.16536-2.0105-0.01838-3.288 0-0.19316-10.007 0.83465-18.887 0-28.609zm5.7395 15.45c1.9044 1.6927 5.5061 1.7523 7.6417-0.17791 3.024-2.7332 2.7023-8.4674 0.054-11.115-2.7318-2.7309-6.8262-1.5775-8.703 0.64504-2.3001 2.7239-1.6574 8.2794 1.0073 10.648z" fill="#ff2d00" style="white-space:pre"/><g fill="#f6f5f8"><path d="m251.77 54.753c-5.9276-0.36593-12.161 2.0157-15.74-1.8707-4.2966-4.6649-3.9731-12.541 0.2005-15.694 9.41-7.1085 13.622 7.4511 12.252-11.044 1.2558 0.16536 2.0795-0.1277 3.288 0 0.19317 10.007-0.66939 18.875 0 28.609zm-5.7395-15.45c-1.9044-1.6927-5.5061-1.7523-7.6417 0.17791-3.024 2.7332-2.7023 8.4674-0.054 11.115 2.7317 2.7309 6.8262 1.5775 8.703-0.64504 2.3001-2.7239 1.6574-8.2794-1.0073-10.648z" style="white-space:pre"/><path d="m261.55 41.579c3.4125-2.9738 2.7543-8.401 0.51163-11.079-2.2426-2.6779-6.8791-1.8915-9.06 0.73254 0.13319-1.5968-0.0469-3.9559 0.0142-5.1886 0.76804 0.0393 7.8931-1.6025 11.387 2.0873 3.4935 3.6898 4.7556 12.16-0.87332 15.967-5.6289 3.8071-7.9672-0.38761-7.4383 6.3933-1.1345-0.14619-2.0075 0.14744-3.0473-0.09001-0.26798-9.6719 5.0939-5.849 8.5064-8.8228z" style="white-space:pre"/><path d="m253.08 51.808c1.2669 0.17116 1.7548-0.16687 3.062 0.0346-0.0253 0.66573 0.18717 1.9616 0.18173 2.8544-1.053-0.04292-2.0095-0.18223-3.2879 0 0.10557-1.0494 0.0269-2.0167 0.0442-2.889z" fill-rule="evenodd"/></g><g transform="translate(1.2486 .0066301)"><circle cx="191.59" cy="169.51" r="23.023" fill="#fcf8f9"/><g transform="translate(-10.533 -16.627)"><path d="m200.44 171.86c2.4533 0.65535 12.161-2.0157 15.74 1.8707 4.2966 4.6649 3.9731 12.541-0.2005 15.694-9.41 7.1085-13.622-7.4511-12.252 11.044-1.2558-0.16536-2.0105-0.0184-3.2879 0-0.19317-10.007 0.83465-18.887 0-28.609zm5.7395 15.45c1.9044 1.6927 5.5061 1.7523 7.6417-0.17791 3.024-2.7332 2.7023-8.4674 0.054-11.115-2.7317-2.7309-6.8262-1.5775-8.703 0.64504-2.3001 2.7239-1.6574 8.2794 1.0073 10.648z" fill="#8e6d9e" style="white-space:pre"/><g fill="#3f3548"><path d="m203.73 200.47c-5.9276-0.36593-12.161 2.0157-15.74-1.8707-4.2966-4.6649-3.9731-12.541 0.2005-15.694 9.41-7.1085 13.622 7.4511 12.252-11.044 1.2558 0.16536 2.0795-0.12771 3.2879 0 0.19317 10.007-0.66938 18.875 0 28.609zm-5.7395-15.45c-1.9044-1.6927-5.5061-1.7523-7.6417 0.17791-3.024 2.7332-2.7023 8.4674-0.054 11.115 2.7317 2.7309 6.8262 1.5775 8.703-0.64504 2.3001-2.7239 1.6574-8.2794-1.0073-10.648z" style="white-space:pre"/><path d="m213.5 187.29c3.4125-2.9738 2.7543-8.401 0.51163-11.079-2.2426-2.6779-6.8791-1.8915-9.06 0.73253 0.13319-1.5968-0.0469-3.9558 0.0142-5.1886 0.76804 0.0393 7.8931-1.6025 11.387 2.0873 3.4935 3.6898 4.7556 12.16-0.87331 15.967-5.6289 3.8071-7.9672-0.38761-7.4383 6.3933-1.1345-0.14619-2.0075 0.14744-3.0473-0.09-0.26797-9.6719 5.0939-5.849 8.5064-8.8228z" style="white-space:pre"/><path d="m205.03 197.52c1.2669 0.17116 1.7548-0.16687 3.062 0.0346-0.0253 0.66573 0.18716 1.9616 0.18173 2.8544-1.053-0.0429-2.0095-0.18223-3.2879 0 0.10557-1.0494 0.0269-2.0167 0.0442-2.889z" fill-rule="evenodd"/></g></g></g><circle cx="250.13" cy="169.52" r="23.023" fill="#41374a"/><g transform="translate(-5.1812 -16.62)"><path d="m253.63 171.86c2.4533 0.65536 12.161-2.0157 15.74 1.8707 4.2966 4.6649 3.9731 12.541-0.2005 15.694-9.41 7.1085-13.622-7.4511-12.252 11.044-1.2558-0.16536-2.0105-0.0184-3.288 0-0.19316-10.007 0.83465-18.887 0-28.609zm5.7395 15.45c1.9044 1.6927 5.5061 1.7523 7.6417-0.1779 3.024-2.7332 2.7023-8.4674 0.054-11.115-2.7317-2.7309-6.8262-1.5775-8.703 0.64504-2.3001 2.7239-1.6574 8.2794 1.0073 10.648z" fill="#826493" style="white-space:pre"/><g fill="#ffdde9"><path d="m256.92 200.47c-5.9276-0.36593-12.161 2.0157-15.74-1.8707-4.2966-4.6649-3.9731-12.541 0.2005-15.694 9.41-7.1085 13.622 7.4511 12.252-11.044 1.2558 0.16536 2.0795-0.12771 3.2879 0 0.19317 10.007-0.66939 18.875 0 28.609zm-5.7395-15.45c-1.9044-1.6927-5.5061-1.7523-7.6417 0.17791-3.024 2.7332-2.7023 8.4674-0.054 11.115 2.7317 2.7309 6.8262 1.5775 8.703-0.64504 2.3001-2.7239 1.6574-8.2794-1.0073-10.648z" style="white-space:pre"/><path d="m266.69 187.29c3.4125-2.9738 2.7542-8.401 0.51162-11.079s-6.8791-1.8915-9.06 0.73253c0.13318-1.5968-0.0469-3.9558 0.0142-5.1886 0.76804 0.0393 7.8931-1.6025 11.387 2.0873 3.4935 3.6898 4.7556 12.16-0.87332 15.967-5.6289 3.8071-7.9672-0.38761-7.4382 6.3933-1.1345-0.14618-2.0075 0.14744-3.0473-0.09-0.26797-9.6719 5.0939-5.849 8.5064-8.8228z" style="white-space:pre"/><path d="m258.22 197.52c1.2669 0.17116 1.7548-0.16688 3.062 0.0346-0.0253 0.66572 0.18717 1.9616 0.18173 2.8544-1.053-0.0429-2.0095-0.18223-3.2879 0 0.10557-1.0494 0.0269-2.0167 0.0442-2.889z" fill-rule="evenodd"/></g></g><g transform="translate(-1.2486 .043049)"><circle cx="194.09" cy="40.386" r="23.023" fill="#f6f5f8"/><g transform="translate(10.634 44.749)"><path d="m181.77-18.648c2.4533 0.65536 12.161-2.0157 15.74 1.8707 4.2966 4.6649 3.9731 12.541-0.2005 15.694-9.41 7.1085-13.622-7.4511-12.252 11.044-1.2558-0.16536-2.0105-0.018384-3.288 0-0.19316-10.007 0.83465-18.887 0-28.609zm5.7395 15.45c1.9044 1.6927 5.5061 1.7523 7.6417-0.17791 3.024-2.7332 2.7023-8.4674 0.054-11.115-2.7317-2.7309-6.8262-1.5775-8.703 0.64504-2.3001 2.7239-1.6574 8.2794 1.0073 10.648z" fill="#ff2d00" style="white-space:pre"/><g fill="#010101" fill-opacity=".99983"><path d="m185.06 9.9605c-5.9276-0.36593-12.161 2.0157-15.74-1.8707-4.2966-4.6649-3.9731-12.541 0.2005-15.694 9.41-7.1085 13.622 7.4511 12.252-11.044 1.2558 0.16536 2.0795-0.1277 3.2879 0 0.19317 10.007-0.66939 18.875 0 28.609zm-5.7395-15.45c-1.9044-1.6927-5.5061-1.7523-7.6417 0.17791-3.024 2.7332-2.7023 8.4674-0.054 11.115 2.7317 2.7309 6.8262 1.5775 8.703-0.64504 2.3001-2.7239 1.6574-8.2794-1.0073-10.648z" style="white-space:pre"/><path d="m194.83-3.2129c3.4125-2.9738 2.7542-8.401 0.51162-11.079-2.2426-2.6779-6.8791-1.8915-9.06 0.73254 0.13318-1.5968-0.0469-3.9559 0.0142-5.1886 0.76804 0.0393 7.8931-1.6025 11.387 2.0873 3.4935 3.6898 4.7556 12.16-0.87332 15.967-5.6289 3.8071-7.9672-0.38761-7.4382 6.3933-1.1345-0.14619-2.0075 0.14744-3.0473-0.090012-0.26798-9.6719 5.0939-5.849 8.5064-8.8228z" style="white-space:pre"/><path d="m186.36 7.0159c1.2669 0.17115 1.7548-0.16687 3.062 0.034602-0.0253 0.66573 0.18717 1.9616 0.18173 2.8544-1.053-0.042915-2.0095-0.18223-3.2879 0 0.10557-1.0494 0.0269-2.0167 0.0442-2.889z" fill-rule="evenodd"/></g></g></g></svg>
