<?xml version="1.0" encoding="UTF-8"?>
<svg width="256" height="256" version="1.1" viewBox="0 0 67.733 67.733" xmlns="http://www.w3.org/2000/svg"><g transform="matrix(1.471 0 0 1.471 -251.64 -25.541)"><circle cx="194.09" cy="40.386" r="23.023" fill="#f6f5f8"/><g transform="translate(10.634,44.749)"><path d="m181.77-18.648c2.4533 0.65536 12.161-2.0157 15.74 1.8707 4.2966 4.6649 3.9731 12.541-0.2005 15.694-9.41 7.1085-13.622-7.4511-12.252 11.044-1.2558-0.16536-2.0105-0.018384-3.288 0-0.19316-10.007 0.83465-18.887 0-28.609zm5.7395 15.45c1.9044 1.6927 5.5061 1.7523 7.6417-0.17791 3.024-2.7332 2.7023-8.4674 0.054-11.115-2.7317-2.7309-6.8262-1.5775-8.703 0.64504-2.3001 2.7239-1.6574 8.2794 1.0073 10.648z" fill="#ff2d00" style="white-space:pre"/><g fill="#010101" fill-opacity=".99983"><path d="m185.06 9.9605c-5.9276-0.36593-12.161 2.0157-15.74-1.8707-4.2966-4.6649-3.9731-12.541 0.2005-15.694 9.41-7.1085 13.622 7.4511 12.252-11.044 1.2558 0.16536 2.0795-0.1277 3.2879 0 0.19317 10.007-0.66939 18.875 0 28.609zm-5.7395-15.45c-1.9044-1.6927-5.5061-1.7523-7.6417 0.17791-3.024 2.7332-2.7023 8.4674-0.054 11.115 2.7317 2.7309 6.8262 1.5775 8.703-0.64504 2.3001-2.7239 1.6574-8.2794-1.0073-10.648z" style="white-space:pre"/><path d="m194.83-3.2129c3.4125-2.9738 2.7542-8.401 0.51162-11.079-2.2426-2.6779-6.8791-1.8915-9.06 0.73254 0.13318-1.5968-0.0469-3.9559 0.0142-5.1886 0.76804 0.0393 7.8931-1.6025 11.387 2.0873 3.4935 3.6898 4.7556 12.16-0.87332 15.967-5.6289 3.8071-7.9672-0.38761-7.4382 6.3933-1.1345-0.14619-2.0075 0.14744-3.0473-0.090012-0.26798-9.6719 5.0939-5.849 8.5064-8.8228z" style="white-space:pre"/><path d="m186.36 7.0159c1.2669 0.17115 1.7548-0.16687 3.062 0.034602-0.0253 0.66573 0.18717 1.9616 0.18173 2.8544-1.053-0.042915-2.0095-0.18223-3.2879 0 0.10557-1.0494 0.0269-2.0167 0.0442-2.889z" fill-rule="evenodd"/></g></g></g></svg>
