<?xml version="1.0" encoding="UTF-8"?>
<svg width="128" height="128" version="1.1" viewBox="0 0 33.867 33.867" xmlns="http://www.w3.org/2000/svg"><g transform="matrix(.7355 0 0 .7355 -161.11 -30.3)"><circle cx="242.07" cy="64.219" r="23.023" fill="#00003c"/><g transform="matrix(.5745 0 0 .5745 -75.731 105.78)"><path d="m550.25-97.207c4.2704 1.1408 21.168-3.5086 27.399 3.2563 7.479 8.1199 6.9158 21.829-0.349 27.317-16.379 12.373-23.711-12.97-21.327 19.224-2.1858-0.28784-3.4995-0.032-5.7232 0-0.33623-17.419 1.4528-32.875 0-49.798zm9.9904 26.893c3.3149 2.9463 9.5842 3.0501 13.302-0.30968 5.2638-4.7575 4.7038-14.739 0.094-19.347-4.755-4.7536-11.882-2.7459-15.149 1.1228-4.0037 4.7413-2.8849 14.412 1.7534 18.534z" fill="#ff2d00" style="white-space:pre"/><g fill="#fff" fill-opacity=".99983"><path d="m555.97-47.409c-10.318-0.63695-21.168 3.5086-27.399-3.2563-7.479-8.1199-6.9158-21.829 0.349-27.317 16.379-12.373 23.711 12.97 21.327-19.224 2.1858 0.28784 3.6198-0.22229 5.7232 0 0.33624 17.419-1.1652 32.855 0 49.798zm-9.9904-26.893c-3.3149-2.9463-9.5842-3.0501-13.302 0.30968-5.2638 4.7575-4.7038 14.739-0.094 19.347 4.755 4.7536 11.882 2.7459 15.149-1.1228 4.0037-4.7413 2.8849-14.412-1.7534-18.534z" style="white-space:pre"/><path d="m572.98-70.339c5.94-5.1764 4.7942-14.623 0.89056-19.285-3.9036-4.6613-11.974-3.2924-15.77 1.2751 0.23183-2.7795-0.0817-6.8858 0.0247-9.0315 1.3369 0.0684 13.739-2.7895 19.82 3.6332 6.081 6.4227 8.2779 21.166-1.5201 27.793s-13.868-0.6747-12.947 11.129c-1.9747-0.25446-3.4944 0.25665-5.3042-0.15668-0.46645-16.835 8.8667-10.181 14.807-15.357z" style="white-space:pre"/><path d="m558.24-52.535c2.2053 0.29792 3.0544-0.29047 5.3299 0.06023-0.044 1.1588 0.32579 3.4145 0.31633 4.9686-1.8329-0.0747-3.4978-0.3172-5.7232 0 0.18376-1.8267 0.0468-3.5104 0.0769-5.0288z" fill-rule="evenodd"/></g></g></g></svg>
